<?xml version="1.0" standalone="no"?>
<!DOCTYPE svg PUBLIC "-//W3C//DTD SVG 20010904//EN"
 "http://www.w3.org/TR/2001/REC-SVG-20010904/DTD/svg10.dtd">
<svg version="1.0" xmlns="http://www.w3.org/2000/svg"
 width="512.000000pt" height="512.000000pt" viewBox="0 0 512.000000 512.000000"
 preserveAspectRatio="xMidYMid meet">
<metadata>
Created by potrace 1.14, written by Peter Selinger 2001-2017
</metadata>
<g transform="translate(0.000000,512.000000) scale(0.100000,-0.100000)"
fill="#000000" stroke="none">
<path d="M2725 4185 c-160 -25 -283 -67 -436 -147 -192 -100 -376 -266 -499
-450 -34 -51 -65 -93 -69 -93 -3 0 -31 10 -63 22 -403 156 -865 -62 -991 -469
-14 -46 -28 -95 -31 -109 -5 -21 -21 -35 -68 -59 -137 -70 -263 -178 -357
-304 -28 -39 -49 -76 -46 -83 2 -8 0 -11 -5 -8 -5 3 -15 -7 -22 -22 -7 -15
-17 -31 -23 -35 -5 -4 -7 -8 -3 -8 4 0 -4 -21 -17 -47 -26 -54 -61 -161 -69
-213 -3 -19 -8 -46 -11 -60 -18 -74 -6 -348 14 -336 4 3 5 -9 3 -26 -4 -23 -2
-29 8 -23 8 5 11 4 7 -2 -8 -13 21 -125 34 -134 6 -3 10 -10 10 -15 -2 -18 21
-74 28 -70 4 3 7 -4 8 -14 2 -23 67 -122 76 -115 4 3 5 2 2 -2 -15 -20 139
-183 238 -251 138 -95 269 -149 431 -177 77 -13 302 -15 1725 -15 1782 1 1706
-2 1868 58 229 84 440 275 550 497 278 557 -34 1221 -643 1375 l-41 10 -6 78
c-32 416 -275 816 -634 1045 -168 107 -366 181 -556 206 -103 14 -312 12 -412
-4z m-2594 -2102 c13 -16 12 -17 -3 -4 -17 13 -22 21 -14 21 2 0 10 -8 17 -17z"/>
</g>
</svg>
