<?xml version="1.0" encoding="UTF-8" standalone="no"?>
<!-- Created with Inkscape (http://www.inkscape.org/) -->
<svg xmlns:svg="http://www.w3.org/2000/svg" xmlns="http://www.w3.org/2000/svg" version="1.0" width="128" height="128" id="svg2"><script xmlns="" id="youtube-hd-{4cf120ba-c67a-47a9-9c99-7ab813d08379}">var ythdlog = () =&gt; {};;var ythderror = () =&gt; {};</script>
  <defs id="defs4"/>
  <path d="M 0,87 C 33.226054,71.941177 57.130146,56.445585 57,69 C 57.061988,81.065762 56.560444,93.101777 59,105 L 43,117 C 39.437033,119.5979 40.278627,123.03716 40,128 L 62,121 L 64,128 L 66,121 L 88,128 C 87.942894,123.11548 88.682902,119.51685 85,117 L 69,105 C 71.211314,93.374671 70.855775,80.943955 71,69 C 71.222336,56.579711 94.528735,72.060691 128,87 C 128.14568,80.276961 127.97386,77.921348 124,75 L 71,35 C 70.925725,17.773768 72.431781,0.30139275 64,0 C 56.183983,0.36236468 57.231393,17.286393 57,35 L 4,75 C 0.26280636,77.455327 -0.0054276713,78.754653 0,87 z" id="path3329" style="fill:#000000;fill-opacity:1;fill-rule:evenodd;stroke:none;stroke-width:1px;stroke-linecap:butt;stroke-linejoin:miter;stroke-opacity:1"/>
</svg>